<svg style="background:#0f172a;border-radius:12px" viewBox="0 0 640 360" role="img"><title>Fama-French five-factor exposures</title><line x1="64" y1="316.0" x2="624" y2="316.0" stroke="rgba(148,163,184,0.25)" stroke-width="1"/><text x="56" y="320.0" text-anchor="end" font-size="10" fill="#94a3b8">-0.04</text><line x1="64" y1="244.0" x2="624" y2="244.0" stroke="rgba(148,163,184,0.25)" stroke-width="1"/><text x="56" y="248.0" text-anchor="end" font-size="10" fill="#94a3b8">0.02</text><line x1="64" y1="172.0" x2="624" y2="172.0" stroke="rgba(148,163,184,0.25)" stroke-width="1"/><text x="56" y="176.0" text-anchor="end" font-size="10" fill="#94a3b8">0.08</text><line x1="64" y1="100.0" x2="624" y2="100.0" stroke="rgba(148,163,184,0.25)" stroke-width="1"/><text x="56" y="104.0" text-anchor="end" font-size="10" fill="#94a3b8">0.14</text><line x1="64" y1="28.0" x2="624" y2="28.0" stroke="rgba(148,163,184,0.25)" stroke-width="1"/><text x="56" y="32.0" text-anchor="end" font-size="10" fill="#94a3b8">0.20</text><line x1="64" y1="266.5" x2="624" y2="266.5" stroke="#64748b" stroke-width="1" stroke-dasharray="4 3"/><rect x="44.0" y="195.2" width="40.0" height="71.4" rx="2" fill="#a78bfa"><title>Beta: 0.06</title></rect><rect x="184.0" y="266.5" width="40.0" height="8.7" rx="2" fill="#a78bfa"><title>Beta: -0.01</title></rect><rect x="324.0" y="28.0" width="40.0" height="238.5" rx="2" fill="#a78bfa"><title>Beta: 0.20</title></rect><rect x="464.0" y="220.2" width="40.0" height="46.4" rx="2" fill="#a78bfa"><title>Beta: 0.04</title></rect><rect x="604.0" y="266.5" width="40.0" height="49.5" rx="2" fill="#a78bfa"><title>Beta: -0.04</title></rect><text x="64.0" y="346" text-anchor="middle" font-size="10" fill="#94a3b8">Mkt-RF</text><text x="204.0" y="346" text-anchor="middle" font-size="10" fill="#94a3b8">SMB</text><text x="344.0" y="346" text-anchor="middle" font-size="10" fill="#94a3b8">HML</text><text x="484.0" y="346" text-anchor="middle" font-size="10" fill="#94a3b8">RMW</text><text x="624.0" y="346" text-anchor="middle" font-size="10" fill="#94a3b8">CMA</text></svg>